<?xml version="1.0" encoding="UTF-8"?>
<svg id="Capa_2" data-name="Capa 2" xmlns="http://www.w3.org/2000/svg" xmlns:xlink="http://www.w3.org/1999/xlink" viewBox="0 0 1366.71 1366">
  <defs>
    <style>
      .cls-1 {
        fill: #9b2247;
      }

      .cls-2 {
        fill: #fff;
      }

      .cls-3 {
        mask: url(#mask);
      }

      .cls-4 {
        fill: #611232;
      }
    </style>
    <mask id="mask" x="0" y="0" width="1366.71" height="1370" maskUnits="userSpaceOnUse">
      <rect class="cls-2" x=".08" y="598" width="1366" height="772"/>
    </mask>
  </defs>
  <g id="Capa_1-2" data-name="Capa 1">
    <g>
      <rect class="cls-4" x=".08" y="598" width="1366" height="768"/>
      <g class="cls-3">
        <path class="cls-1" d="M255.57,687.6v.66c.66,39.18,15.13,77.69,42.5,105.97,8.98,10.16,22.25,16.09,14.58-5.22-3.39-9.18-6.84-19.08-9.07-28.84-37.76-148.62,89.5-279.41,224.37-318.72,11.77-4.59,17.2-13.75,1.76-15.73-10.43-.84-21.78.9-32.37,2.5-125.04,20.69-239.85,128.47-241.77,259.39ZM367.5,388.21c-75.01-13.99-142.72,60.82-145.5,135.41l.03.65c2.7,25.06,15.41-11.46,19.74-17.06,5.57-9.32,12.28-17.79,19.9-25.48,60.09-58.12,77.01-18.44,113.02-36.32,25.79-15.11,22.23-49.74-7.19-57.2ZM694.46,387.48c-61.59,13.39-118.8-30.2-179.19-31.05h-.69c-24.2-.05-48.6,7.79-69.3,20.46-10.89,6.74-21.86,14.44-30.48,23.74-11.31,12.36-6.85,16.75,9.97,11.45,68.02-27.45,111.97-8.46,179.07,7.58,17.94,4.34,36.82,7.75,55.22,5.35,16.87-2.01,34.77-9.86,45.76-22.31,11.87-13.66,2.51-16.96-10.37-15.23ZM414.87,277.41c-3.2-.41-6.8-.2-10.27.19-105.36,10.8-227.77,85.87-233.3,199.1v.69c-.31,23.84,4.38,49.54,14.36,68.2,2.12,3.75,5.44,9.54,10.15,9.01,3.41-.27,5.14-7.08,5.03-11.91-3.4-53.27,14.35-103.28,48.47-144.35,41.84-52.41,101.29-85.63,164.02-106.13,9.12-3.51,13.45-13.07,1.53-14.8ZM262.4,1083.3c40.56-19.59,71.68-65.39,68.3-110.65-2.05-23.49-15.77-44.1-35.43-57.09-13.06-9.02-35.75-18.27-49.05-6.71-13.07,12.16-1.56,27.03,11.62,33.41,17.42,8.62,32.1,23.79,34.37,43.67,3.83,38.07-26.72,68.96-54.72,90.62-5.24,4.7-17.29,10.95-18.23,17.4l.06.19c6.67,5.91,35.08-6.96,43.08-10.85ZM166.73,635.5c6.15,26.84,26.73,47.43,40.41,70.67,13.19,20.02,24.66,41.32,35.76,62.69,2.77,4.86,6.15,14.66,10.37,17.03l.23.07c5.94-1.09,1.23-20.17.36-25.56-7.69-36.71-15.53-73.4-23.57-110.05-2.82-12.52-6.27-25.31-13.56-35.98-23.22-34.69-57.36-18.73-50.01,21.14ZM727.14,792.32l.66.25c72.39,23.21,211.79-2.54,239.4-74.35,1.61-7.08-1.58-15.05-7.88-18.74-11.48-5.79-25.72,2.28-35.89,8.11-47.47,35.42-92.83,75.67-155.58,76.26-10.21.36-20.21-.99-30.25-2.71-5.01-.79-10.54-1.96-14.45-.58-7.54,2.76-1.86,10.12,3.99,11.75ZM886.82,240.27c-90.26,43.73-178.58,155.09-179.47,258.37v.66c-.8,79.5,45.34,163.06,123.17,189.42,54.51,19.07,118.19.78,154.01-44.85,14.37-16.83,26.19-44.54-6.84-22.29-16.85,10.89-35.11,16.53-54.58,16.76-41.99.38-80.64-19.79-108.59-50.29-34.22-36.54-52.28-92.69-39.04-146.26,13.4-54.57,39.78-105.52,73.94-150.17,10.46-13.47,22.39-25.72,35.18-37.01,5.25-4.41,18.23-18.67,2.21-14.34ZM439.04,605.78c.48,1.82,4.66,3.29,11.38,4.15,18.48,1.78,43.09,1.8,62.9,1.65,64.94,1.04,126.81-34.22,161.04-88.73,11.24-17.92,30.62-53.49,9.61-69.69-28.79-11.89-52.45,49.23-67.38,67.75-32.09,49.18-77.38,68.01-134.25,72.31-8.93,1.03-18.27,2.35-26.32,4.27-10.79,2.5-17.6,5.61-17.01,8.13l.03.15ZM871.92,332.69c1.52-4.08,2.09-7.74,1.08-9.79-6.89-8.29-23.97,14.79-28.84,20.33-30.54,37.79-50.78,83.23-51.64,133.05v.65c.14,68.81,52.21,122.52,122.9,125.11,13.26.81,24.09-4.67,9.29-15.98-80.27-48.31-95.49-148.4-62.69-230.26,2.96-7.8,6.96-15.46,9.89-23.11ZM791.86,752.63c24.76.11,48.12-5.3,69.25-18.5,3.55-2.22,8.59-6.82,8.19-9.63-.93-6.4-7.52-4.49-12.32-4.52-9.07-.06-18.22.57-27.21-.35-31.38-3.23-59.12-13.74-79.98-39.19-18.01-21.98-32.79-45.25-39.69-73.27-4.68-18.99-20.96-32.44-37.08-32.7-17.57-.28-33.76,12.37-40.57,30.9-4.95,13.48-1.7,25.76,3.41,38.29,26.22,64.3,89.63,108.7,156.01,108.98ZM389.47,1025.99c1.14,6.87,2.61,12.08,4.44,13.02l.18.09c1.47.64,3.16-1.42,4.72-5.5,1.45-3.78,2.67-9.15,3.35-13.6,12.02-71.75-18.02-149.28-77.62-192.04-15.59-12.03-41.57-23.76-57.63-7.04-11.81,12.84-9.68,35.43.13,49.26,20.19,27.01,52.5,41.87,76.02,65.74,25.87,24.15,42.49,54.82,46.42,90.09ZM572.57,530.78c23.28-16.85,43.36-39.33,53.82-66.4,2.19-5.27,4.37-15.84,2.22-17.25l-.14-.14c-4.88-2.34-12.9,8.48-17.85,12.66-36.34,37.74-90.66,42.03-138.98,53.01-68.92,15.93-141.39,63.24-155.17,136.99-2.47,18.03,9.45,36.71,27.93,27.78,11.67-5.87,19.67-16.68,27.99-27,18.37-24.5,38.7-48.68,66.52-62.64,21.42-11.45,45.59-17.14,68.34-24.77,23.13-7.58,45.59-17.84,65.33-32.23ZM974.94,231.08c9.77-14.28,21.42-27.91,33.45-40.35,1.98-1.92,4.92-5.46,4.78-7.03v-.27c-.92-3.48-7.61-1.99-13.73.17-15.74,6.31-29.92,16.74-42.1,28.41-48.62,47.96-78.6,112.73-78.32,181.24-.44,33.8,13.79,65.06,22.09,97.2,6.13,20.21,4.3,41.91,11.22,61.83,19.29,50.87,66.53,10.24,69.36-26.02,6.61-62.35-56.54-87.5-49.72-174.33,3.63-43.15,19.39-84.44,42.97-120.85ZM768.94,917.72c16.18-6.53,24.28-23.68,36.69-35.15,24.05-22.3,59.45-23.1,88.16-36.5,57.75-24.28,109.07-78.65,115.72-142.55v-.62c-.44-12.82-5.76-10.46-7.84-.08-5.15,28.38-24.75,51.98-46.46,69.85-27.84,23.25-63.76,31.85-98.08,40.48-43.98,11.38-98.41,21.51-120.68,66.28-11.95,25.92,4.31,49.02,32.49,38.28ZM498.61,331.57c-13.43,11.92,4.44,13.23,13.13,11.88,51.61-7.43,100.02,18.32,150.56,22.5h.62c13.93-.15,27.99-2.4,41.83-6.5,16.9-5.19,32.87-14.49,45.44-27.01,19.69-20.29,2.12-19.73-15.59-13.97-79.48,23.03-125.14-38.14-211.52-.45-8.62,3.87-17.4,7.78-24.46,13.55ZM558.68,201.16c-1.52-.96-4.33,1.16-7.58,5.29-3.16,3.98-6.36,9.19-9.3,13.62-23.68,36.44-57.53,62.36-96.58,79.25-28.71,14.49-66.75,13.3-91.69,34.37-21.05,22.3,4.58,44.45,29.13,44.18,84.53-.89,150.19-84.25,175.04-159.53,1.42-4.8,3.85-14.14,1.15-17.07l-.17-.12ZM1156.72,170.35c-18.32-23.38-54.01-26.99-79.51-15.71-18.52,7.92-32.84,20.23-44.19,36.15-4.16,6.58-11.44,13.24-11.1,21.03,3.6,9.58,20.52-8.92,25.96-11.52,23.3-16.19,48.58-22.2,76.15-13.78,6.03,1.69,12.5,3.98,18.51,4.14h.6c12.33.42,21.29-8.65,13.59-20.31ZM861.51,134.06c-12.25-2.41-25.42-.03-37.89.12-60.81,2.59-101.22,7.21-142.95,55.7-17.76,16.93-37.28,31.8-60.65,40.02-14.44,4.79-28.95,10.35-39.84,21.36-5.37,5.49-11.5,12.32-10.25,16.49l.12.2c3.01,2.3,8.04-.74,11.57-1.62,27.09-9.2,56.29-10.43,84.64-13.46,50.35-6.24,78.63-27.81,114.85-61.28,22.91-16.37,47.63-31.28,73.85-41.54,9.22-2.65,21.99-11.04,6.56-15.99ZM141.34,429.69c.37,7.9,2.5,27.22,9.84,27.69,1.36-.24,2.61-1.81,3.65-4.35,2.51-6.54,3.07-14.17,4.72-21.29,5.53-25.71,15.04-51.06,39.52-63.67,5.03-3.06,10.13-6.16,13.86-9.97,9.48-8.73,7.35-23.7-2.92-30.52-11.51-7.83-27.02-2.64-37.08,5.5-26.39,22.72-31.61,62.19-31.63,95.91l.03.7ZM517.23,66.43c-18.85,118.88-160.6,181.58-266.1,137.09-5.92-2.59-22.05-8.76-18.64,2.7,4.28,8.81,13.57,15.66,21.09,22.21,22.44,17.46,53.13,28.86,81.97,29.33h.62c93.18,2.08,195.21-51.82,206.44-147.39,1.04-14.01-.97-28.04-6.8-41.69-5.24-12.77-14.85-18.31-18.59-2.26ZM408.52,159.71c-53.13,7.24-101.52-9.43-144.6-40.36-7.06-4.99-14.72-10.46-22.9-13.35-20.86-8.62-45.19,7.96-41.85,30.47,1.73,12.86,13.54,24.05,24.87,31.43,26.99,17.74,59.87,24.6,91.57,24.7h.65c35.96-1.42,75.77-6.53,106.4-26.97,1.97-1.94,2.52-3.68,1.43-4.81-2.68-2.59-10.99-1.57-15.56-1.11ZM411.27,1140.53c40.39-10.39,73.19-39.72,98.04-72,56.38-73.05,71.69-193.17,17-271.03-19.93-28.36-48.23-49.48-83.36-55.54-7.57-.94-14.74-1.38-15.89,3.14-.12,5.94,9.44,10.99,14.2,14.82,51.35,33.37,73.75,92.86,73.26,154.47v.63c-3.65,80.67-41.29,154.98-105.95,204.63-4.53,3.62-10.24,7.7-13.82,11.78-8.77,11.2,7.41,11.51,16.52,9.09ZM1117.9,719.59c-.62-13.29-5.99-25.52-11.25-37.53-8.72-19.44-15.51-39.9-23.68-59.62-2.29-6.16-10.22-18.87-11.67-4.33,6.51,82.02,29.88,124.71-25.34,197.66-3,4.75-4.65,8.52-3.52,10.02l.15.19c1.25,1.5,5.41.48,10.46-1.82,40.08-18.55,66.39-60.62,64.85-104.58ZM680.37,946.48c43.5,27.58,99.17,25.18,147.27,13.68,5.05-1.38,13.88-3.65,16.35-8.14l.11-.32c-.17-7.03-24.52-4.23-30.81-4.89-41.92-1.6-78.55-23.28-115.98-39.97-44.77-19.01-52.97,16.84-16.95,39.65ZM384.86,1122.14c69.7-56.73,133.44-175.02,75.94-258.5-14.56-22.87-35.45-43.15-41.44-70.3-1.44-10.53-4.36-29.77-11.79-11.65-15.76,61.49,18.53,120.4,30.13,179.78,12.65,54.86-19.41,106.61-54.69,145.96-5.33,6.82-18.4,17.72-18.06,24.36l.09.18c4.47,2.99,15.24-6.32,19.83-9.83ZM654.33,849.55c.16,11.28-.72,25.44,7.26,33.87,6.82,7.37,17.53,7.19,25.08-.47,13.68-14,18.39-33.99,18.43-52.94-1.16-72.74-42.78-133.98-103.81-171.9-10.03-6.44-21.07-10.94-32.6-13.8-19.47-4.45-15.05,7.04-3.33,14.84,60.51,44.26,89.06,116.81,88.97,189.73v.66ZM1136.22,829.78c-14.51,2.66-28.53,5.45-42.82,8.24-77.81,10.95-132.05,44.9-152.3,123.81-4.94,17.89-6.38,36.36-8.38,54.72-.36,3.14-.31,7.41,2.13,9.32,4,2.87,7.96-1,10.71-5.1,26.97-40.33,60.04-72.93,102.58-93.65,14.4-7.58,31.19-11.74,46.33-18.32,26.65-12.35,50.29-37.35,53.99-67.43l.04-.61c.5-9.51-2.93-12.92-12.27-10.98ZM1009.34,837.85c37.89-43.07,60.38-100.55,48.55-158.52-2.15-10.19-5.67-19.94-9.46-29.59-1.69-4.72-6.22-12.38-9.16-12.05-4.07-.66-4.82,10.5-4.38,15.32,6.6,102.91-64.76,193.94-154.25,237.41-17.98,9.2-37.14,15.16-56.22,21.39-4.92,1.69-9.56,3.91-11.55,6.13-5.87,6.28,9.94,7.59,15.83,7.09l.68-.02c70.07-2.4,133.58-32.46,179.97-87.15ZM1073.27,970.14c-25.55,18.28-55.2,30.15-82.71,45.46-23.73,13.76-45.28,30.87-64.71,50.47-5,5.68-14.33,13.33-15.74,20.29l.03.22c.2,1.07,1.42,1.22,3.39.44,4.57-1.87,9.1-5.93,13.13-9.15,15.28-12.63,32.17-22.16,50.22-28.84,21.51-8.38,45.31-10.55,67.48-16.56,40.15-10.66,75.56-29.2,105.41-60.51,29.61-30.95,53.02-67.65,49.56-112.94-.95-13.55-3.78-26.76-6.49-40-4.15-21.27-11.2-16.48-13.89,1.03-13.16,62.15-54.51,114.85-105.68,150.08ZM752.34,1120.86c7.45-9.65,17.77-30.26-3.45-27.46-51.69,14.12-95.62,47.92-138.06,79.24-31.54,24.06-67.19,43.03-107.23,48.1-7.56,1.52-21.54,1.21-26.02,5.7l-.09.18c.06,6.98,24.47,9.77,31.31,10.73,95.29,11.47,190.58-36.22,243.54-116.48ZM775.92,1065.98c-5-3.69-17.13-7.51-28.47-10.2-34.39-8.4-71.06-13.83-105.73-4.12-64.84,19.49-107.23,79.09-168.88,105.09-22.58,9.69-46.47,14.86-71.18,15.11-10.99.26-22.36-1.19-33.37-1.58-7.62-.22-12.83.49-13.87,2.54-2.9,2.59,9.64,10.75,16.97,13.89,45.91,20.34,99.88,25.65,147.38,8.14,87.99-31.73,130.01-124.26,232.81-119.4h.7c11.04-.18,34.58-1.01,23.64-9.48ZM544,1299.92h.7c50.51-2.26,97.3-21.02,128.19-66.54,10.19-14.56,11.15-26.73-8.25-12.28-63.11,45.74-165.67,59.67-225.14,2.65-6.17-4.89-12.87-6.09-12.36,3.09,2.07,14.13,11.81,27.52,21.5,37.88,24.25,25.22,59.9,34.86,95.37,35.2ZM411.86,1217.07c-10.98-6.75-10.6,24.76-10.8,30.91v.75c.67,16.68-.24,40.96,16.51,49.81,3.85,1.58,8.16,1.36,11.5-1.03,12.53-11.57,1.27-30.05-2.49-44.32-3.9-10.52-7.78-30.01-14.71-36.12ZM214.04,1049.8c-3.46-9.74-26.33,2.48-34.6,2.55-50.38,7.65-105.81,1.01-150.79,29.08-8.12,5.26-19.31,11.23-23.56,19.73l-.13.37c-1.79,10.4,19.02-.16,24.7-2.16,6.5-2.54,13.16-4.75,19.95-6.41,18.42-4.58,37.58-4.78,56.24-1.72,17.07,2.55,34.64,9.51,51.59,7.78,15.71-1.22,29.54-10.26,40.02-21.65,6.2-7.12,17.72-18.37,16.59-27.55ZM285.37,1279.24c13.55.29,28.1-1.5,39.24-10.06,9.73-6.97,13.34-21.82,1.26-27.53-4.06-2.08-10.13-2.11-14.76-1.48-24.81,3.27-50.84,11.13-73.53-.33-4.4-1.78-18.5-11.61-18.93-2.21.39,4.13,3.33,7.9,5.87,11.08,15.38,17.77,36.85,29.4,60.27,30.5l.57.02ZM292.4,1324.27h.66c31.09-.75,57.84-18.96,78.43-42.44,4.3-5.16,9.71-11.64,10.37-18.32-1.23-12.21-23.53,8.84-28.92,11-9.15,5.55-19.11,9.67-29.42,12.51-30.39,8.39-53.46,4.95-81-8.67-12.87-4.44-14.2,6.18-9.09,14.88,11.05,19.33,36.31,31.28,58.97,31.04ZM1180.7,1241.41c18.12,12.59,31.07-6.44,28.27-24.96-.98-9.14-4.12-17.83-8.35-26.36-64.09-123.21-236.69-138.07-333.1-44.15-12.4,11.94-24.31,24.99-33.45,39.61-4.19,6.93-6.17,12.18-5.31,13.61l.07.11c.98,1.45,5.13-1.34,11.06-6.85,5.54-5.08,12.1-12.09,18.71-17.93,63.22-55,149.9-58.55,223.47-21.36,21.02,10.2,40.44,23.4,56.93,40.05,15.37,13.91,25.22,35.63,41.71,48.23ZM1286.43,1169.39l.16.19c1.23,1.37,4.43-.47,7.96-3.85,12.76-12.73,22.18-28.3,26.9-45.84,19.31-69.88,4.5-135.46-41.55-190.72-13.88-16.64-29.01-31.95-43.9-47.48-3.67-4.03-10.55-8.78-15.4-5.3-11.49,10.97,7.49,34.52,13.05,45.97,8.05,13.94,17.42,27.14,25.42,41.08,30.29,53.58,50.56,118.46,33.12,180.09-1.43,7.49-7.84,19.17-5.76,25.84ZM1205.66,930.44c-12.27-.59-20.39,11.01-15.71,22.27,4.66,12.03,15.77,20.88,24.04,30.58,19.43,21.36,34.88,45.23,43.92,72.34,1.83,6.13,10.63,26.21,12.7,11.24-2.37-39.35-18.85-76.85-37.08-111.66-5.74-10.8-14.11-23.75-27.27-24.74l-.59-.03ZM1240.27,74.11s.06.02.09.03c4.76,1.79,9.41-2.92,8-7.8-.12-.41-.24-.81-.38-1.22-.59-1.78-1.81-3.4-2.94-4.95-12.81-17.63-24.47-36.64-23.94-60.1h-37.84c-.34,26.13,30.05,63.43,57.01,74.04ZM150.39,966.24c-14.94,17.62,3.13,18.08,16.54,13.67,11.37-3.58,22.21-9.63,31.64-16.89,33.51-25.38,45.58-68.73,44.77-109.57l-.02-.68c-.98-24.82-6.11-50.12-15.7-73.32-9.72-22.71-25.28-42.36-43.54-59.93-23.72-22.26-34.52-17.66-17.55,12.75,30.7,56.79,45.17,129.88,17.41,190.02-7.55,16.88-21.16,30.38-33.54,43.94ZM1082.44,1175.14c-32.77-17.82-72.67-19.95-108.33-12.13-36.61,8.55-72.1,27.9-94.86,58.36-10.48,15.18-.08,14.77,11.73,8.21,35.82-19.82,79.03-29.2,119.03-18.52,16.97,4.24,34,11.99,51.51,12.86l.66.02c34.17,1.27,55.08-29.32,20.26-48.8ZM887.95,1274.99c-16.64,18.9-12.21,51.72,16.23,53.74,23.98-.72,40.49-21.68,60.15-32.67,33.9-21.35,72.46-25.89,111.48-18.88,4.83.58,15.86,3.37,18.98.17l.14-.27c.31-5.8-9.17-10.8-13.61-13.75-56.45-32.11-145.61-39.79-193.38,11.67ZM175.97,1115.74c-18.81,9.55-40.4,10.62-60.72,5.79-10.04-1.48-22.58-8.61-32.16-4.2-6.23,5.61,2.03,15.06,9.45,21.44,14.27,11.63,32.17,18.06,50.46,18.41h.69c22.33.47,47.16-8.5,56.33-30.6,1.99-5.36,3.88-13.59-1.19-17.48-6.17-3.74-16.45,3.75-22.86,6.64ZM91.81,934.62c-3.09,28.85,24.21,39.01,45.19,20.96,39.61-36.39,38.53-103.09,32.7-152.62l-.09-.7c-1.61-12.51-4.66-35.77-9.52-43.53-.55-.93-1.24-1.83-2.14-2-1.49-.14-2.53,3.23-3.12,9.01-.77,7.11-.66,16.35-1.38,23.96-4.1,43.01-33.16,77.01-51.73,114.74-4.71,9.4-8.98,19.75-9.9,30.19ZM1061.68,264.16c20.67-18.12,47.27-28.83,73.38-36.67,4.35-1.38,16.8-4.13,13.4-10.43-4.69-5-19.44-4.16-27.36-4.47h-.63c-92.99-.31-152.83,81.01-149.6,166.93.92,72.78,93.98,137.5,60.74,208.62-4.07,7.41-7.68,21.73,5.98,16.89,8.79-4.25,14.76-12.94,20.7-20.44,33.31-41.77,17.97-95.11-6.73-136.95-18.81-30.92-38.57-65.26-30.74-102.48,6.68-29.6,19.58-59.05,40.86-80.99ZM37.15,1113.4c-9.38,2-25.94,6.01-36.08,8.59v16.19c21.79-5.07,35.45-4.56,52.62-5.03,2.95-.08,7.54-2.6,8.3-4.97.92-2.88-.45-7.64-2.56-10.1-5.94-6.92-14.4-6.36-22.28-4.68ZM572.66,1050.89c42.6-46.24,56.74-110.84,57.82-172.81v-.65c.58-105.46-64.28-246.06-186.66-235.56-52.43,4.43-103.37,48-110.38,101.48-2.58,20.35,1.11,41.15,11.54,58.66,3.37,6.01,11.61,14.87,16.73,9.18,4.25-4.68,4.87-11.64,6.4-17.61,4.15-19.96,10.76-39.77,23.3-56.56,42.16-56.87,110.81-21.07,144.34,25.36,41.37,53.31,61.41,119.69,60.67,187,.36,34.15-9.11,66.64-28.74,94.85-3.87,7.29-2.64,12.15,4.99,6.66ZM746.96,256.68c-14.48,8.34-30.63,14.4-47.58,17.56-4.33,1.05-10.16,1.91-13.06,5.13-3.11,6.81,16.2,5.5,21.69,5.61h.64c58.49-1.14,119.03-16.89,162.71-56.62,50.02-52.23,104.27-78.91,176.11-88.84,17.83-4.57,12.15-11.15-1.63-11.19-98.22.74-196.67,37.01-268.06,104.54-9.39,8.98-19.63,17.46-30.82,23.81ZM1186.12,656.6c14.74-3.69,24.11-58.17,25.26-72.7,2.91-71.09,14.01-122.9,60.47-179.26,9.54-9.83,12.93-22.49-4.41-12.78-61.59,34.69-105.98,95.66-106.4,166.59v.68c.16,31.28,5.46,61.32,15.42,87.08,1.72,4.25,4.28,10.84,9.67,10.37ZM997.32,110.1l.61-.08c5.02-.35,12.04-3.84,9.89-7.14-4.87-6.17-17.85-7.68-25.15-11.6-26.2-11.41-40.37-38.41-61.24-56.66-10.32-10.11-29.94-12.52-34.19,4.41-2.62,11.98,4.19,24.36,11.14,33.84,22.13,29.43,63.73,37.57,98.92,37.23ZM1.11,175.74v28.9c19.92-5.15,36.17-15.29,51.11-27.53,6.98-5.72,13.09-12.57,19.18-19.27.29-.32.46-.75.56-1.24.58-2.92-2.14-5.44-5.11-5.14-.33.03-.66.08-.99.13-.95.17-1.66,1.38-2.59,1.98C24.03,178.96,3.88,175.26,1.11,175.74ZM52.5,203.62c.19-.19.31-.44.39-.73.69-2.49-1.59-4.76-4.17-4.59-.6.04-1.17.15-1.68.39-10.41,4.83-20.2,11.19-31.05,14.9-7.47,2.56-9.98,3.55-14.97,4.7v24.8c20.49-8.18,36.71-24.68,51.47-39.47ZM181.48,156.61c-3.47-9.91-13.38-.21-16.27,5.2-53.88,76.2,35.82,184.02,116.71,141.64,7.29-3.42,35.28-25.31,16.45-29.09-61.69-5.96-113.94-41.75-116.27-105.38v-.6c-.12-3.88.39-7.93-.63-11.77ZM.87,92.42c0,17.26-.14,37.77.22,53.94,14.49.71,23.42-2.32,31.44-6.39,13.11-6.67,14.55-20.8,4.65-31.91-9.32-10.45-21.46-14.62-36.3-15.64ZM131.59,197.53l-.12-.11c-6.44-.18-13.81,30.77-16.57,37.55-9.17,30.39-20.68,61.03-20.28,93.14.3,14.52,3.91,31.12,15.67,40.47,16.32,12.86,29.59-2.2,29.95-19.49.8-12.09-1.7-24.24-3.86-36.11-6.05-30.55-9-61.18-5.33-92.03.53-6.32,3.02-19.03.53-23.42ZM25.93,427.67c16.37,63.56,58.22,116.94,120.89,143.57,9.29,3.52,21.41,9.82,30.71,7.82l.4-.14c16.33-8.46-23.53-54.25-30.98-64-21.89-27-43.47-54.9-63.02-83.88-28.39-45.24-50.85-97.79-37.05-151.8,1.21-4.49,3.82-18.2-.75-17.64-3.52.4-8.69,8.98-10.44,13.64-20.56,48.56-24.06,100.11-9.74,152.43ZM1178.27,1270.13c-12.67-14.97-28.15-27.68-43.13-40.52-9.21-7.89-20.92-8.97-32-4.37-4.41,1.83-9.18,6.77-10.34,11.19-.88,3.37,2.74,9.23,6.02,12.1,6.58,5.77,14.58,9.9,21.49,15.34,33.39,26.3,52.97,61.2,62.86,102.03h38.03c-.37-3.55-.45-7.15-1.16-10.63-6.52-32-20.93-60.51-41.77-85.14ZM1308.62,1296.56c-.1.2-.18.41-.25.63-1.53,4.81,4.17,8.9,8.39,6.15.08-.05.16-.11.24-.16,15.14-10.83,31.54-16.64,49.72-16.11v-45.18c-27.9,7.38-45.42,28.06-58.1,54.68ZM700.51,1283.2c.36-2.65-.28-5.49-.95-8.15-2.97-11.82-14.35-15.5-25.76-8.41-9.89,6.14-16.17,14.5-19.67,24.52-9.11,26.08-5.88,50.95,8.98,74.75h70.65c-.49-.97-37.35-52.49-33.25-82.71ZM852.4,1268.68c-1.97-25.79,3.85-49.78,22.04-69.62.18-.2.33-.43.46-.68,1.62-3.31-1.72-6.95-5.35-6.34-.4.07-.81.14-1.21.23-.97.21-1.74,1.3-2.62,1.96-49.61,37.41-64.65,123.73-5.01,171.68h67.84c-46.73-27.48-72.61-50.86-76.14-97.23ZM1015.76,1309.05c-24.36.81-47.27,7.14-67.72,20.83-2.3,1.54-3.37,4.93-5.01,7.46,2.72.5,5.65,1.93,8.13,1.37,27.03-6.14,53.3-3.11,78.36,7.8,11.59,5.05,21.99,12.84,32.93,19.39h92.83c-50.8-37.03-94.02-58.37-139.52-56.85ZM425.65,1316.01c-39.96,4.99-78.75,18.94-119.85,15.67-.55-.04-1.13.13-1.71.43-2.98,1.53-3.28,5.83-.59,7.84.49.36.99.61,1.51.66,12.82,1.21,25.71,2.64,38.55,2.39,38.3-.76,76.65-1.78,114.04,8.16,12.43,3.31,24.64,7.97,36.01,14.75h90.83c-45.59-36.41-111.22-55.83-158.78-49.89ZM1335.88,1335.05c-12.31,6.27-23.38,11.88-23.55,30.68,18.19,0,36.2.18,54.39.18v-39.58c-11.66-.34-21.26,3.85-30.83,8.73ZM1273.67,1142.33v-.68c-.18-13.87-3.23-29.51-9.34-41.81-5.02-9.34-11.04-7.64-10.61,4.11,7.6,83.36-35.84,97.71-31.59,141.31.27,11.93,12.66,34.83,17.63,11.36,2.17-23,17.08-42.29,24.33-63.74,5.74-16.61,9.25-33.67,9.58-50.56ZM774.47,1170.98c.77-4.57.18-9.38.22-14.07-4.63,2.38-10.1,3.87-13.76,7.29-18.95,17.7-29.01,40.5-35.36,65.12-7.42,28.75,16.84,114.56,34.52,136.58h65.8c-4.93-6.16-9.28-12.26-14.12-18.49-40.81-52.57-48.11-112.1-37.29-176.43ZM220.65,1306.73c-5.24-5.79-8.26-11.63-12.74-17.17-.37-.45-.82-.83-1.33-1.17-2.7-1.78-6.55-.64-7.54,2.43-.13.4-.2.79-.19,1.19.26,8.21,3.97,45.97,17.75,73.89h118.02c-11.97-3.24-94.96-36.17-113.97-59.17ZM187.36,1256.15c.33-11.46-8.15-17.97-19.62-16.87-8.05.77-13.69,5.12-18.15,11.54-16.99,24.43-18.29,51.47-11.82,79.11,2.9,12.37,8.93,24.01,13.54,35.97h34.73c-3.52-20.74-7.85-55.8-2.84-81.29,1.85-9.41,3.89-18.94,4.16-28.47ZM79.16,1259.23c-18.63-22.45-54.35-24.26-78.09-17.35-.35,13.66-.2,30.54-.2,45.28,20.36,1.27,35.85,10.55,52.36,16.34,4.66,1.63,9.25,4.62,14.17,4.35,16.61-.93,22.37-13.65,20.79-27.28-.86-7.42-4.26-15.59-9.03-21.33ZM142.03,1235.39c.39-.35.67-.81.87-1.37,1.39-3.76-2.01-7.55-5.98-7.03-1.53.2-2.93.57-4.02,1.38-42.21,31.21-54.95,91.19-29.55,137.53h41.34c-4.51-6.22-9.26-12.29-13.5-18.7-24.47-36.92-21.52-83.08,10.84-111.81ZM192.38,1218.94c-5.15-6.73-10.55-13.45-16.8-19.13-30.6-27.82-67.56-41.5-107.92-46.83-20.03-2.65-41.11-7.79-66.58-2.06-.57,16.18-.14,44.16-.14,61.27,69.86-21.67,133.5-15.91,182.95,14.7.79.49,1.79.65,2.88.65,3.73,0,6.81-3.29,6.23-6.97-.1-.63-.29-1.19-.63-1.63ZM318.68,1220.81c15.26-7.85,26.98-36.75,4.88-43.2-15.75-2.88-30.34,7.53-45.39,10.68-18,4.86-36.22,4.77-53.71-1.06-7.48-1.68-20.13-9.85-26.64-4.99l-.22.3c-1.93,3.32,1.53,8.53,3.96,11.6,27.31,32.8,79.72,48.98,117.12,26.66ZM1281.81.07h-35.81c.28,2.18,6.5,57.07,74.72,119.61,13.89,9.81,28.66,24.14,45.99,26.69v-53.94c-28.13-1.1-73.8-53.19-84.91-92.35ZM1249.25,200.96c-8.13-4.51-15.08-11.13-23.22-15.64-14.27-7.91-31.59-6.25-42.62,3.4-12.48,10.92-12.48,24.15-8.46,39.23,4.08,15.29,15.03,22.43,27.83,28.07,21.88,9.63,45.13,11.7,68.71,10.98,33.46-1.02,65.3-8.68,95.22-23.92v-24.8c-2.17.24-4.35.39-6.51.73-38.97,6.12-76.21,1.25-110.96-18.05ZM1286.87,144.19c-5.63-8.42-9.81-17.8-15.16-26.43-6.58-10.6-16.04-16.83-28.95-15-12.4,1.76-20.62,9.58-23.56,21.38-1.58,6.34-1.21,13.74.33,20.17,3.63,15.16,13.99,26.03,26.2,34.9,36.56,26.53,77.52,33.05,120.98,25.43v-28.9c-8.69-1.12-56.49.04-79.85-31.55ZM1240.31,285.76c-14.75-2.85-30.17-5.32-44.97-4.13-34.4,2.76-59.45,22.53-79.29,49.5-.17.24-.31.5-.42.78-1.47,3.72,2.67,7.43,6.39,5.98.45-.18.88-.39,1.27-.64,12.41-8.11,25.6-14.53,40.51-15.18,19.21-.83,38.48-.29,57.72-.65,16.48-.31,33.2.52,49.39-1.94,39.21-5.96,67.85-30.92,95.8-56.54v-6.61c-4.64,2.34-9.64,4.16-13.86,7.1-34.31,23.81-71.79,30.23-112.54,22.35ZM.83,1326.32v39.58h70.2c-15.45-23.45-39.69-38.89-70.2-39.58ZM1338.24,438.74c1.13,27.36,6.33,45.19,17.56,69.95,1.83,4.04,8.12,15.21,10.91,18.82v-239.78c-2.05,3.17-4.6,6.13-6.09,9.54-19.69,45.2-24.4,92.84-22.38,141.47ZM1312.32,0c0,7.72-.65,14.31.13,20.76,1.81,15.01,5.74,29.38,19.46,39.19,2.04,1.46,5.33,2.27,7.8,1.91,1.07-.16,2.4-4.14,2.13-6.22-2.47-18.87,7.79-32.18,24.87-34.28V0h-54.4ZM1332.61,689.75c-2.52-6.16-6.54-12.11-11.11-17.41-11.17-12.97-29.6-11.72-38.6,2.5-7.06,11.15-9,23.1-6.12,35.58,7.89,34.22,47.94,59.91,89.93,64.93v-52.68c-17.11-6.8-27.97-17.92-34.1-32.92ZM1345.32,569.65c-.14-.46-.36-.9-.64-1.32-2.49-3.71-8.39-3.27-10.12.85-.17.41-.29.83-.32,1.25-1.16,13.95-2.32,27.96-2.19,41.94.22,24.31,10.66,44.58,27.14,61.91,1.91,2.01,4.98,2.91,7.52,4.32v-74.41c-10.62-9.36-17.38-21.02-21.39-34.55ZM1334.5,1148.16c.7-.14,1.38-.31,2.05-.51,13.05-3.86,17.05-5.53,30.05-9.48v-16.19c-16.03,3.9-24.55,9.87-35.48,19.77-.02.02-.04.04-.07.06-2.73,2.52-.2,7.08,3.44,6.34ZM1279.6,846.57c-25.79-17.99-44.41-42.33-60.12-69.21-.15-.26-.32-.5-.51-.73-3.43-4.2-10.58-2-10.97,3.41-.03.45-.01.89.07,1.31,12.06,60.58,45.23,104.68,102.9,128.63,17.7,7.35,36.52,10.06,55.74,5.72v-51.26c-32.31,10.04-60.73.53-87.11-17.87ZM1348.53,1090.59c6.2-6.36,12.19-12.52,18.18-18.67v-57.29c-11.15,14.02-24.84,53.31-25.88,72.56-.22,4.16,4.79,6.38,7.7,3.4ZM1246,1365.9h35.86c3.51-79.71,28.09-128.3,76.39-150.65,2.72-1.26,5.64-2.1,8.46-3.13v-61.18c-77.28,21.06-141.4,131.75-120.71,214.97ZM1321.6,803.48c-25.52-2.55-47.84-12.76-66.66-29.07-.44-.39-.96-.7-1.52-.97-4.11-1.97-9.07,1.32-8.43,5.83.07.48.19.95.39,1.38,2.52,5.49,5.86,10.86,9.9,15.54,16.42,19.01,38.43,30.5,63.43,37.5,15.68,4.39,31.66,6.49,48.01,3.21v-34.69c-15.05.55-30.31,2.76-45.11,1.28ZM.91,513.4c.01,3.51.12,9.96.12,14.11,13.52,20.34,35.73,61.45,66.31,84.17,10.05,7.47,21.18,11.55,33.41,13.08,16.3,2.04,33.41-5.73,39.93-17.97,5.18-9.72,2.65-21.31-5.47-26.29-59.94-36.75-101.72-87.98-122.05-155.6-11.8-39.26-14.46-79.15-.54-118.56,5-14.16,12.74-27.33,18.76-41.16.47-1.08.38-2.41.12-3.81-.47-2.53-3.04-4.1-5.47-3.24-1.12.4-2.12.9-2.8,1.67-2.85,3.27-16.63,16.09-22.21,27.93-2.21,33.48-.19,92.87-.19,126.49,0,33.06-.04,66.12.07,99.18ZM1239.99,649.65c45.91-41.19,78.81-95.65,84.39-157.77.4-17.48.75-37.9-9.39-53.04-5.31-7.13-14.2-11.5-23.61-11.72-17.7-.45-29.23,16.84-34.88,31.52-12.27,43.69-.25,90.14-11.74,134.03-6.37,25.7-18.32,49.51-34.01,70.81-3.08,4.12-9.67,12.82-8.13,15.75l.12.23c1.09,2.12,6.4-1.11,8.45-2.97,9.7-8.7,18.92-18.18,28.8-26.84ZM1237.72,1111.67c-.42-3.07-1.02-6.18-1.76-9.28-11.31-48.58-52.49-74.33-98.91-75.51h-.67c-18.74-.06-37.89,6.41-52.32,18.42-6.58,4.96-17.88,19.31-3.01,21.15,43.15.29,83.22,27.64,105.6,63.73,7.38,10.32,12.47,30.34,27.62,30.46,20.65-3.03,25.99-31.37,23.44-48.97ZM1308.92,319.56c-33.76,19.96-74.25,7.8-110.45,17.95-15.78,3.69-35.86,13.9-37.48,32.12-1.84,18.32,18.95,30.64,35.36,30.56h.63c43.5-4.21,84.3-34.42,114.99-64.36,6.23-6.53,13.85-12.64,18.51-20.23,5.93-13.92-17.06,1.94-21.56,3.97ZM796.33,1239.23l.18.04c.84.11,1.55-.81,2.07-2.6,1.81-7.89,1.11-16.52,2.08-24.82,1.68-19.1,7.96-37.95,18.33-54.01,18.63-28.34,41.29-54.1,64.44-78.59,7.57-8.18,15.08-16.5,20.48-26.33,20.07-37.41-4.56-62.14-40.46-37.8-60.93,47.63-87.51,133.56-73.3,209.1.97,4.53,3.08,13.41,6.18,15ZM1154.78,263.83c5.85-3.89,17.07-14.18,4.18-16.68-61.92.02-115.97,48.72-114.33,112.15v.65c.32,17.62,4.89,35.19,13.98,53.48,8.41,16.45,17.82,11.34,16.81-5.68-1.23-57.58,33.71-110.77,79.37-143.93ZM1211.89,90.89c-5.29-20.2-28.17-33.87-48.2-34.59h-.68c-30.42-.4-55.03,17.52-67.57,43.78-1.65,3.9-5.68,11.44-1.84,14.48,2.97,1.74,11.03-4.86,14.99-7.72,17.31-12.8,32.26-17.98,52.79-11.5,11.77,3.3,22.4,10.87,34.21,13.41,10.51,2.32,18.75-7.42,16.3-17.86ZM1125.54,549.83c.15-13.46,3.74-26.76,10.48-39.39,1.54-3.03,4-8.99.79-10.66-12.16-2.41-28.06,18.36-32.43,28.81-16.61,40.2-12.33,85.29,4.9,124.48,12.16,28.73,28.91,56.53,29.53,88.68v.64c.19,13.99-6.03,29.72-16.56,41.56-5.9,7.24-14.85,13.56-15.53,23.55,1.55,18.39,28.25,4.8,37.28.05,8.63-4.96,15.93-11.55,21.31-20.12,15.49-27.5,13.79-62.93,6.34-92.71-11.79-40.7-31.7-78.59-42.89-119.36-2.19-8.32-3.38-17.02-3.22-25.54ZM1119.13,369.96c-3.22-2.61-8.59-7.18-12.56-4.64-1.78,1.41-1.43,4.91-.26,8.71,4.85,13.35,7.43,27.68,3.19,41.46-4.79,17.24-18.69,29.96-25.68,46.07-5.7,11.8-4.42,27.46,4.11,37.61,8.61,9.16,20.32.97,28.34-6.12,18.03-16,27.76-38.78,28.57-62.81v-.67c-.27-23-8.79-44.46-25.72-59.6ZM61.88,791.48c.2-1.38-.81-2.73-2.2-2.75-.24,0-.46.03-.65.14-16.86,9.19-39.35,11.49-57.96,13.34-.39,9.31-.18,25.32-.18,34.69,27.75-2.17,58.17-25.89,61-45.41ZM92.68,860.38c18.83-21.41,33.13-45.29,38.32-73.71.22-1.21-.07-2.52-.59-3.87-1.44-3.75-5.96-5.36-9.39-3.27-.98.6-1.86,1.27-2.56,2.1-5.69,6.68-10.18,14.41-16.04,20.92-27.45,30.51-60.35,52.12-101.18,61.33v51.82c42.53-10.46,69.53-30.4,91.45-55.32ZM63.41,732.86c-18.87,6.22-36.27.84-53.5-6.35-2.64-1.1-5.45-2.67-8.65-3.72v52.58c21.67.56,38.96-7.39,54.3-20.29,4.99-4.2,9.26-9.35,13.33-14.49,3.17-4.01,1.99-11.3-5.48-7.74ZM43.48,1051.42c-.65,10.45,21.67-1.94,27.29-2.46,13.07-3.52,26.74-2.98,40.19-2.47,27.99,1.8,55.24-3.24,78.67-18.91,40.23-27.19-6.42-35.66-32.28-37.2l-.7-.03c-38.07-1.63-99.24,24.2-113.18,61.07ZM241.33,1156.82h.62c68.4,1.11,123.72-72.13,122.88-163.1-.12-6.86-1.07-21.17-6.36-23.17-8.12,1.26-7.63,31.26-10.6,39.89-12.23,60.11-55.55,90.48-112.29,101.39-33.68,10.06-30.42,45.09,5.75,45ZM919.46,936.93c2.1-4.44,7.6-15.49,1.7-17.07-6.09.29-12.37,9.6-17.44,14.63-16.15,17.14-34.83,30.27-56.37,39.22-27.05,11.61-57.36,14.55-86.26,9.34-19.29-2.93-38.3-10.42-57.64-10.46-35.26-1.3-64.06,23.45-81.63,52.07-4.95,7.42-7.91,18.28,3.39,14.61,5.49-2.04,11.18-6.05,16.63-8.73,11.73-6.14,25.42-6.53,38.96-6.34,24.19.46,49.3,6.19,72.87,8.08l.64.02c74.92,1.67,136.48-32.15,165.15-95.37ZM584.91,141.9c.05.33.12.66.2.99,1.45,5.56,8.57,6.77,11.7,1.95.38-.59.68-1.2.87-1.85,4.17-14.19,8.78-28.47,10.67-43.06,4.31-33.33,11.19-54.8-19.12-94.2-1.53-2.43-2.46-3.32-4.8-5.65-29.69,0-60.63-.04-90.83-.04,12.15,8.31,23.2,15.1,33.57,23.92,36.24,30.8,51.25,72.32,57.73,117.93ZM182.92,77.25c5.93,11.51,16.6,18.38,30.3,18.24,9.74-.09,14.01-6.51,10.51-15.51-1.38-3.55-3.35-6.96-5.57-10.07C203.82,49.87,186.22,6.55,186.03.09c-8.73,0-24.76,0-34.73,0,2.99,10.67,4.26,15.27,6.9,21.71,7.67,18.73,15.46,37.49,24.71,55.45ZM1176.2,48.52c3.31,1.22,6.93-1.16,7.39-4.65.13-.97.11-1.88-.22-2.66-6.68-15.67-26.26-41.1-28.32-41.11-33.28-.11-59.32-.08-92.6-.08,59.13,33.27,74.85,18.34,112.54,47.84.36.28.76.49,1.21.65ZM69.52,288.66c-.48,12.03.54,24.15,1.41,36.18.02.26.08.51.17.76,1.25,3.31,6.03,3.15,7.78.07.23-.41.45-.82.65-1.25.52-1.12,0-2.71,0-4.09-.02-21.89,1.84-43.76,9.56-64.21,9.02-23.89,16.5-48.99,30.54-70.33C155.83,130.81,159.19,27.69,144.69.09h-41.34c6.2,12.62,11.49,23.01,13.29,34.11,7.03,43.37,2.23,85.47-13.62,126.52-15.97,41.35-31.69,82.9-33.49,127.94ZM248.57,27.59c32.54,17.36,67.53,22.5,103.87,19.4,26.05-2.22,50.86-8.96,73.01-23.44.04-.03.08-.05.12-.08,4.83-3.3,1.83-11.25-3.97-10.5-.03,0-.06,0-.09.01-29.31,4.3-84.79-11.98-87.05-12.9-37.41-.09-78.57-.02-118.38-.02,9.66,12.79,20.4,21.06,32.49,27.52ZM45.9,47.05c7.27,14.93,10.06,30.7,6.59,47.27-1.99,9.48,1.22,16.55,8.81,19.96,6.98,3.13,15.26,1.07,19.87-6.95,4.31-7.48,14.82-36.59-2.07-91.68C77.49,10.36,71.03.09,71.03.09c-18.73,0-51.4,0-70.2,0,.02,3.36.3,13.86.3,21.27,20.87-.85,35.93,7.52,44.78,25.68ZM63.14,645.93c-22.4-10.4-42.3-24.78-62.3-41.98,0,25.78-.14,51.29.18,74.66,13.33,9.98,24.03,15.92,34.64,18.65,10.52,2.71,21.83,2.24,32.75,3.52,24.25,2.84,46.07,10.38,60.74,31.78.97,1.41,5.05,2,6.01,1.72,10.56-3.08-5.42-28.23-11.61-37.37-15.23-22.48-35.66-39.48-60.42-50.98ZM289.21,69.34c-6.22-3.14-12.35-6.66-18.55-9.78-4.1-2.02-9-3.72-11.73-2.38-4.68,2.46-.44,9.5,2.2,12.96,28.55,36.61,65.1,58.1,105.53,59.96l.68.02c115.17,3.08,132.93-133.97,101.39-100.86-41.21,61.1-115.27,73.91-179.52,40.09ZM856.25,79.19c7.79,2.32,16.21,2.77,24.39,3.33,2.06.14,5.19-2.16,6.18-4.16.65-1.32-1.25-4.47-2.74-6.12-1.8-1.99-4.43-3.23-6.64-4.87-23.18-17.22-25.92-27.04-51.55-67.31-21.98,0-43.43,0-65.8,0,1.17,2.28,55.96,67.15,96.16,79.13ZM978.15,24.53c.41-.08.8-.24,1.19-.46,3.84-2.2,3.31-8.18-.83-9.76-.44-.17-.88-.27-1.33-.27-14.75-.11-41.05-11.38-48.64-13.86-19.87-.27-47.97-.09-67.84-.13,30.51,24.5,90.95,29.83,117.45,24.48ZM.84,1071.66c26.5-22.82,45.95-48.96,61.01-78.14,5.94-11.52,10.04-24.55,12.04-37.35,1.29-8.29-1.14-18.15-4.76-25.99-6.52-14.14-23.8-15.44-33.02-2.83-5.61,7.68-9.94,16.49-13.67,25.29-5.46,12.9-10.07,38.84-21.86,62.95.45,16.36.26,38.24.26,56.07ZM988.33,74.69c13.82,8.77,30.03,13.19,46.52,13.42h.72c25.48.28,51.57-11.56,66.49-32.5,4.47-5.74,8.43-16.22,5.44-19.85-10.35-12.64-46.64,34.56-107.46,23.49-19.35-3.76-32.63.45-11.71,15.45ZM888.83,114.53c.2-.02.4-.05.6-.1,3.64-.87,4.69-6.27,1.4-8.05-1.26-.68-5-1.77-6.35-1.98C819.57,94.33,754.07,31.01,733.76.09c-22.36,0-46.41,0-70.65,0,1.78,3.66,3.52,6.09,4.84,8.34,49.98,85.16,143.8,112.57,220.88,106.1ZM591.5,202.08c-3.79,3.85-8.71,6.67-10.6,11.4-1.56,4.41,2.58,6.62,7.15,5.42,15.89-4.02,29.11-14.54,43.46-22.13,20.38-10.83,37.96-25.31,53.1-42.35,14.11-14.84,23.41-33.59,23.05-54.7v-.63c1.63-46.12-63.48-63.5-67.86-9.98,2.98,43.03-17.54,83.87-48.3,112.98Z"/>
      </g>
    </g>
  </g>
</svg>